<svg id="Слой_1" data-name="Слой 1" xmlns="http://www.w3.org/2000/svg" viewBox="0 0 2702.72 2702.72"><defs><style>.cls-1{fill:#019939;}.cls-2{fill:#fff;}.cls-3{isolation:isolate;}.cls-4{fill:#161616;}.cls-5{fill:none;stroke:#1e1e1e;stroke-miterlimit:10;stroke-width:40px;}</style></defs><g id="Слой_2" data-name="Слой 2"><path class="cls-1" d="M1420.24,1107.86c-74,80.71-68.49,206.1,12.22,280.06a198.21,198.21,0,0,0,134,52.08h311.23V1309.82a92,92,0,0,0-92-92h-42v89.65H1567.41c-35.82,0-65.69-28.49-66.16-64.31a65.16,65.16,0,0,1,64.31-66h.88v80.3h61a61,61,0,0,0,61-61h0a61,61,0,0,0-61-61h-19.3v-55.53h19.3a61,61,0,0,0,61-61h0a61,61,0,0,0-61-61h-61v81.32a65.15,65.15,0,0,1-65.2-65.1c0-.3,0-.6,0-.9.47-35.82,30.34-64.31,66.16-64.31H1743.7v88.63h42.79a91.18,91.18,0,0,0,91.18-91.18h0V775.67H1568.14c-109.19,0-200.1,89.32-200,198.51A197.76,197.76,0,0,0,1420.24,1107.86Zm185.86,66.69h23.84a23.84,23.84,0,0,1,23.84,23.84h0a23.84,23.84,0,0,1-23.84,23.84H1606.1Zm0-181.51h23.84a23.84,23.84,0,0,1,23.84,23.84h0a23.84,23.84,0,0,1-23.84,23.84H1606.1ZM1451.66,1135.6a157.63,157.63,0,0,1,34.92-28.41,155.9,155.9,0,0,1,79.86-289.82H1836v87.88a50.56,50.56,0,0,1-50.56,50.56h0V867.18H1567.69c-58.87,0-108,48.17-107.61,107a106.36,106.36,0,0,0,106.36,105.67v55.53a106.36,106.36,0,0,0,0,212.72h219v-88.63h0A50.55,50.55,0,0,1,1836,1310v87H1568c-86.34,0-157.46-69.51-157.49-155.85A155.38,155.38,0,0,1,1451.66,1135.6Z"/><path class="cls-2" d="M1606.1,1174.55v47.73h23.82a23.86,23.86,0,0,0,23.86-23.86h0a23.87,23.87,0,0,0-23.86-23.87Z"/><path class="cls-2" d="M1606.1,993v47.68h23.84a23.84,23.84,0,0,0,23.84-23.84h0A23.84,23.84,0,0,0,1629.94,993Z"/><path class="cls-2" d="M1451.66,1135.6a155.42,155.42,0,0,0-41.13,105.49c0,86.38,71.18,155.93,157.56,155.93h267.8a.08.08,0,0,0,.07-.08v-87a50.48,50.48,0,0,0-50.48-50.48h0s-.07,0-.08.06h0V1348a.08.08,0,0,1-.07.08H1566.44a106.36,106.36,0,0,1-.08-212.72.08.08,0,0,0,.08-.07V1080a.09.09,0,0,0-.08-.08,106.36,106.36,0,0,1-106.23-103c-1.88-60.33,47.31-109.73,107.67-109.73h217.53a.07.07,0,0,1,.07.07v88.49a.07.07,0,0,0,.07.07h0A50.48,50.48,0,0,0,1836,905.38V817.44a.07.07,0,0,0-.07-.07H1566.44a155.91,155.91,0,0,0-80,289.76.08.08,0,0,1,0,.1l0,0A157.57,157.57,0,0,0,1451.66,1135.6Z"/><g class="cls-3"><g class="cls-3"><path class="cls-1" d="M839.63,1689.19V1536H918q30.21,0,45.1,11.06T978,1576a35,35,0,0,1-6.23,20.69,42.27,42.27,0,0,1-17.52,14q-11.28,5.14-26.81,5.15l4.37-10.51q16.2,0,28.24,4.92t18.72,14.23q6.68,9.32,6.68,22.66,0,19.92-16.09,31t-47,11.06Zm42.91-31.3h36.34q11.16,0,17-3.84t5.81-11.71q0-7.87-5.81-11.71t-17-3.83h-39.4v-30h32.83q11,0,16.42-3.72t5.47-11.17q0-7.44-5.47-11.05t-16.42-3.61H882.54Z"/><path class="cls-1" d="M1008,1689.19V1536h43.34v153.24Z"/><path class="cls-1" d="M1136,1692.25a138,138,0,0,1-36.23-4.7q-17.41-4.71-28.35-12.15l14.23-32a99.69,99.69,0,0,0,23.75,10.83,88.14,88.14,0,0,0,26.81,4.27,51.55,51.55,0,0,0,14.45-1.64q5.47-1.64,8-4.38a9.2,9.2,0,0,0,2.52-6.46,9.42,9.42,0,0,0-4.82-8.31,43.5,43.5,0,0,0-12.47-5q-7.67-2-17-3.94a175.91,175.91,0,0,1-18.61-5,74.35,74.35,0,0,1-17-8,39.16,39.16,0,0,1-12.48-12.92q-4.82-8-4.82-20.25a43.55,43.55,0,0,1,7.56-25q7.54-11.16,22.65-17.95t37.66-6.78a130.36,130.36,0,0,1,29.66,3.39,94.5,94.5,0,0,1,25.94,10l-13.35,32.18a104.33,104.33,0,0,0-21.68-8.87,78.53,78.53,0,0,0-20.79-3q-9,0-14.45,1.86t-7.88,4.93a11,11,0,0,0-2.41,7q0,5,4.71,8a41.87,41.87,0,0,0,12.47,4.82q7.77,1.86,17.08,3.83a191.63,191.63,0,0,1,18.61,4.93,70.29,70.29,0,0,1,17,7.88,38.13,38.13,0,0,1,12.37,12.91q4.71,8,4.71,20a43.34,43.34,0,0,1-7.56,24.63q-7.54,11.28-22.54,18.06T1136,1692.25Z"/><path class="cls-1" d="M1267.16,1689.19h-43.34V1536h43.34Zm62.17-59.76h-65.24v-35.9h65.24Zm-3.06-93.48h43.34v153.24h-43.34Z"/><path class="cls-1" d="M1400.26,1689.19V1536h42.9v153.24Zm38.74-33.93-2.4-48.6,65.89-70.71h47.72l-65.67,71.15-24.08,25.17Zm64.14,33.93-49.91-63.26,28.24-30.22,72,93.48Z"/><path class="cls-1" d="M1607.78,1655.7h80.12v33.49h-123V1536h120.18v33.5h-77.28Zm-3.06-60.42h71.14v32.4h-71.14Z"/><path class="cls-1" d="M1712,1689.19V1536h42.91v153.24Zm38.75-33.93-2.41-48.6,65.89-70.71h47.73l-65.68,71.15-24.08,25.17Zm64.14,33.93L1765,1625.93l28.24-30.22,72,93.48Z"/></g><g class="cls-3"><path class="cls-4" d="M868.41,1835.77h51.24v21.42H841v-98h76.86v21.42H868.41Zm-2-38.64H912v20.72h-45.5Z"/></g><g class="cls-3"><path class="cls-4" d="M924.41,1857.19l42.84-59.5-.14,19.74L926,1759.19h31.22l26.32,37.94-13.3.14,25.9-38.08h30l-41.16,57.12v-19.6l43.4,60.48H996.37l-26.74-39.9h12.74l-26.32,39.9Z"/></g><g class="cls-3"><path class="cls-4" d="M1038.37,1857.19v-98h44.8q13.44,0,23.17,4.34a33.86,33.86,0,0,1,15.05,12.53,34.77,34.77,0,0,1,5.32,19.39,33.09,33.09,0,0,1-20.37,31.71q-9.73,4.41-23.17,4.41h-29.4l12.32-12v37.66Zm27.72-34.72-12.32-12.74h27.72q8.68,0,13-3.78t4.27-10.5q0-6.85-4.27-10.64t-13-3.78h-27.72l12.32-12.74Z"/></g><g class="cls-3"><path class="cls-4" d="M1141,1857.19v-98h44.8q13.44,0,23.17,4.34a33.86,33.86,0,0,1,15,12.53,34.77,34.77,0,0,1,5.32,19.39,32.54,32.54,0,0,1-20.37,31.43q-9.74,4.27-23.17,4.27h-29.4l12.32-11.62v37.66Zm27.72-34.72-12.32-12.74h27.72q8.69,0,13-3.78t4.27-10.5q0-6.85-4.27-10.64t-13-3.78h-27.72l12.32-12.74Zm32.9,34.72-24.36-35.7h29.54l24.5,35.7Z"/><path class="cls-4" d="M1272,1835.77h51.24v21.42h-78.68v-98h76.86v21.42H1272Zm-2-38.64h45.5v20.72h-45.5Z"/><path class="cls-4" d="M1373.11,1859.15a88.21,88.21,0,0,1-23.17-3q-11.13-3-18.13-7.77l9.1-20.44a64,64,0,0,0,15.19,6.93,56.45,56.45,0,0,0,17.15,2.73,33.16,33.16,0,0,0,9.24-1,11.23,11.23,0,0,0,5.11-2.8,5.91,5.91,0,0,0,1.61-4.13,6,6,0,0,0-3.08-5.32,27.88,27.88,0,0,0-8-3.22q-4.9-1.26-10.85-2.52a111.1,111.1,0,0,1-11.9-3.22,47.31,47.31,0,0,1-10.85-5.11,24.93,24.93,0,0,1-8-8.26q-3.09-5.12-3.08-13a27.85,27.85,0,0,1,4.83-16q4.83-7.14,14.49-11.48t24.08-4.34a83.13,83.13,0,0,1,19,2.17,60.74,60.74,0,0,1,16.59,6.37l-8.54,20.58a66.41,66.41,0,0,0-13.86-5.67,50,50,0,0,0-13.3-1.89,29.49,29.49,0,0,0-9.24,1.19,10.43,10.43,0,0,0-5,3.15,7,7,0,0,0-1.54,4.48,5.77,5.77,0,0,0,3,5.11,26.63,26.63,0,0,0,8,3.08q5,1.18,10.92,2.45t11.9,3.15a45.51,45.51,0,0,1,10.85,5,24.44,24.44,0,0,1,7.91,8.26,25,25,0,0,1,3,12.81,27.74,27.74,0,0,1-4.83,15.75q-4.83,7.21-14.42,11.55T1373.11,1859.15Z"/><path class="cls-4" d="M1463.69,1859.15a88.21,88.21,0,0,1-23.17-3q-11.13-3-18.13-7.77l9.1-20.44a64,64,0,0,0,15.19,6.93,56.45,56.45,0,0,0,17.15,2.73,33.16,33.16,0,0,0,9.24-1,11.23,11.23,0,0,0,5.11-2.8,5.91,5.91,0,0,0,1.61-4.13,6,6,0,0,0-3.08-5.32,27.88,27.88,0,0,0-8-3.22q-4.9-1.26-10.85-2.52a111.1,111.1,0,0,1-11.9-3.22,47.31,47.31,0,0,1-10.85-5.11,24.93,24.93,0,0,1-8-8.26q-3.09-5.12-3.08-13a27.85,27.85,0,0,1,4.83-16q4.83-7.14,14.49-11.48t24.08-4.34a83.13,83.13,0,0,1,19,2.17,60.74,60.74,0,0,1,16.59,6.37l-8.54,20.58a66.41,66.41,0,0,0-13.86-5.67,50,50,0,0,0-13.3-1.89,29.49,29.49,0,0,0-9.24,1.19,10.43,10.43,0,0,0-5,3.15,7,7,0,0,0-1.54,4.48,5.77,5.77,0,0,0,3,5.11,26.63,26.63,0,0,0,8,3.08q5,1.18,10.92,2.45t11.9,3.15a45.51,45.51,0,0,1,10.85,5,24.44,24.44,0,0,1,7.91,8.26,25,25,0,0,1,3,12.81,27.74,27.74,0,0,1-4.83,15.75q-4.83,7.21-14.42,11.55T1463.69,1859.15Z"/><path class="cls-4" d="M1560.56,1857.19v-98h27.72v98Z"/><path class="cls-4" d="M1609,1857.19v-98h22.82l54,65.24H1675.1v-65.24h27.16v98h-22.82l-54-65.24h10.78v65.24Z"/></g><g class="cls-3"><path class="cls-4" d="M1769,1859.15a60.66,60.66,0,0,1-21.49-3.71,49.9,49.9,0,0,1-17.08-10.57,49,49,0,0,1-11.27-16.17,53.84,53.84,0,0,1,0-41,49,49,0,0,1,11.27-16.17,49.9,49.9,0,0,1,17.08-10.57,60.66,60.66,0,0,1,21.49-3.71,59.28,59.28,0,0,1,24.29,4.76,46.72,46.72,0,0,1,17.85,13.72l-17.64,16a34.9,34.9,0,0,0-10.43-8.54,27.13,27.13,0,0,0-12.67-2.94,30.17,30.17,0,0,0-11.06,2,23.77,23.77,0,0,0-8.61,5.67,26.65,26.65,0,0,0-5.6,8.89,33.48,33.48,0,0,0,0,23,26.65,26.65,0,0,0,5.6,8.89,23.77,23.77,0,0,0,8.61,5.67,30.17,30.17,0,0,0,11.06,2,27.13,27.13,0,0,0,12.67-2.94,34.9,34.9,0,0,0,10.43-8.54l17.64,16a48,48,0,0,1-17.85,13.65A58.49,58.49,0,0,1,1769,1859.15Z"/></g><g class="cls-3"><path class="cls-4" d="M1835.61,1858.45a15.65,15.65,0,0,1-11.34-4.48,15.14,15.14,0,0,1-4.62-11.34q0-7.14,4.62-11.41a17.19,17.19,0,0,1,22.68,0q4.62,4.27,4.62,11.41A15.14,15.14,0,0,1,1847,1854,15.65,15.65,0,0,1,1835.61,1858.45Z"/></g></g><rect class="cls-5" x="679.48" y="627.25" width="1351.42" height="1351.42"/><path class="cls-1" d="M1345.88,983.89c.13-109.19-90.78-198.52-200-198.52H836.38V916a91.18,91.18,0,0,0,91.18,91.18h42.79V918.59h176.29c35.82,0,65.68,28.49,66.15,64.31a65.14,65.14,0,0,1-64.29,66h-.89V967.6h-61a61,61,0,0,0-61,61h0a61,61,0,0,0,61,61h19.3v55.53h-19.3a61,61,0,0,0-61,61h0a61,61,0,0,0,61,61h61v-80.3a65.14,65.14,0,0,1,65.19,65.09c0,.31,0,.61,0,.91-.47,35.82-30.33,64.31-66.15,64.31H970.35v-89.65h-42a92,92,0,0,0-92,92h0v130.19h311.23c109.48,0,198.25-88.73,198.26-198.22a198.23,198.23,0,0,0-52.06-133.93A197.75,197.75,0,0,0,1345.88,983.89ZM1108,1232h-23.84a23.85,23.85,0,0,1-23.85-23.85h0a23.84,23.84,0,0,1,23.84-23.84H1108Zm0-181.56h-23.84a23.85,23.85,0,0,1-23.85-23.85h0a23.85,23.85,0,0,1,23.85-23.84H1108Zm195.56,200.44c0,86.34-71.14,155.85-157.48,155.85h-268v-86.94a50.57,50.57,0,0,1,50.57-50.57h0v88.63h219a106.36,106.36,0,1,0,2.07-212.71h-2.07V1089.6A106.36,106.36,0,0,0,1254,983.93c.37-58.88-48.74-107-107.62-107H928.65v88.63h0A50.57,50.57,0,0,1,878.08,915V827.07h269.53a155.91,155.91,0,0,1,79.86,289.83,157.63,157.63,0,0,1,34.92,28.41,155.37,155.37,0,0,1,41.12,105.56Z"/></g></svg>