<svg width="41" height="28" viewBox="0 0 41 28" fill="none" xmlns="http://www.w3.org/2000/svg">
<path d="M9.33127 9.99024C14.1591 9.99024 18.0727 13.904 18.0727 18.7317C18.0727 23.5594 14.1591 27.4732 9.33127 27.4732C4.50348 27.4732 0.589806 23.5594 0.589806 18.7317L0.550781 17.4829C0.550781 7.82736 8.37814 0 18.0337 0V4.99512C14.6981 4.99512 11.5621 6.29409 9.2035 8.65272C8.74949 9.10681 8.33513 9.58993 7.96136 10.0974C8.40772 10.0272 8.86516 9.99024 9.33127 9.99024ZM31.8093 9.99024C36.637 9.99024 40.5508 13.904 40.5508 18.7317C40.5508 23.5594 36.637 27.4732 31.8093 27.4732C26.9816 27.4732 23.0679 23.5594 23.0679 18.7317L23.0288 17.4829C23.0288 7.82736 30.8561 0 40.5118 0V4.99512C37.1763 4.99512 34.0401 6.29409 31.6816 8.65272C31.2275 9.10681 30.8131 9.58993 30.4393 10.0974C30.8857 10.0272 31.3431 9.99024 31.8093 9.99024Z" fill="#46C258"/>
</svg>
